<svg xmlns="http://www.w3.org/2000/svg" width="289.059" height="270.236" viewBox="0 0 289.059 270.236"><g transform="translate(-2447.247 546.55)"><g transform="translate(2494.904 -546.55)"><g transform="translate(0 222.707)"><path d="M2574.017,11.232a3.871,3.871,0,0,1,.051,5.744,3.919,3.919,0,0,1-5.86.034l-2.039-2.049,5.809-5.779Zm-6.73,3.773,1.461,1.469a3.185,3.185,0,0,0,4.743-.1,3.142,3.142,0,0,0-.021-4.6l-1.461-1.469Z" transform="translate(-2566.169 -9.183)"/><path d="M2591.286,38.047l-4.469-3.813L2592.133,28l4.389,3.745-.5.587-3.766-3.213-1.906,2.235,3.6,3.068-.494.578-3.6-3.068-1.914,2.243,3.846,3.281Z" transform="translate(-2578.542 -20.46)"/><path d="M2612.348,43.97l-4.388,5.986,3.673,2.693-.457.623-4.334-3.177,4.846-6.609Z" transform="translate(-2590.542 -29.739)"/><path d="M2625.9,63.082l4.464-6.87.687.447-4.465,6.87Z" transform="translate(-2601.96 -37.365)"/><path d="M2644.55,71.5l-.8-.448.991-8.871.785.442-.937,7.867,6.2-4.905.8.448Z" transform="translate(-2612.663 -40.942)"/><path d="M2668,85.6l-5.338-2.459,3.429-7.443,5.243,2.414-.323.7-4.5-2.072-1.229,2.669,4.3,1.979-.318.691-4.3-1.979-1.234,2.68,4.594,2.116Z" transform="translate(-2623.994 -49.041)"/><path d="M2692.789,95.505l-1-.365-1.514-3.769-1.99-.727-1.036,2.837-.77-.281,2.812-7.7,3.453,1.262a2.506,2.506,0,0,1,1.659,3.373,2.374,2.374,0,0,1-3.184,1.516Zm-2.995-9-1.245,3.408,2.639.964a1.817,1.817,0,1,0,1.289-3.392Z" transform="translate(-2638.265 -54.918)"/><path d="M2718.186,103.414l-5.663-1.565,2.183-7.9,5.562,1.537-.206.745-4.772-1.319-.782,2.832,4.558,1.26-.2.733-4.558-1.26-.786,2.843,4.874,1.347Z" transform="translate(-2653.872 -59.981)"/><path d="M2742.073,100.576a3.87,3.87,0,0,1,3.292,4.707,3.919,3.919,0,0,1-4.812,3.344l-2.841-.536,1.52-8.051Zm-3.414,6.92,2.036.384a3.185,3.185,0,0,0,3.857-2.763,3.142,3.142,0,0,0-2.622-3.782l-2.036-.384Z" transform="translate(-2668.968 -63.63)"/><path d="M2780.794,106.654l-2.885-.2.052-.771,6.587.448-.052.771-2.885-.2-.5,7.4-.817-.056Z" transform="translate(-2693.055 -67.014)"/><path d="M2809.272,110.8a4.151,4.151,0,1,1-4.212-4.193A4.008,4.008,0,0,1,2809.272,110.8Zm-4.087,3.52a3.474,3.474,0,0,0-.113-6.941,3.19,3.19,0,0,0-3.279,3.542A3.239,3.239,0,0,0,2805.185,114.322Z" transform="translate(-2706.877 -67.566)"/><path d="M2845.149,107.516l2.076-4.413.951-.127,0,.023-2.518,5.251.44,3.271-.812.109-.44-3.271-3.769-4.407,0-.023.94-.127Z" transform="translate(-2730.909 -65.389)"/><path d="M2874.87,102.525a4.151,4.151,0,1,1-4.958-3.277A4.007,4.007,0,0,1,2874.87,102.525Zm-3.31,4.258a3.474,3.474,0,0,0-1.483-6.781,3.19,3.19,0,0,0-2.514,4.12A3.239,3.239,0,0,0,2871.56,106.784Z" transform="translate(-2746.229 -63.087)"/><path d="M2900.11,90.194l1.5,4.768a3.028,3.028,0,0,1-2.1,4.1,3.062,3.062,0,0,1-4.111-2.142l-1.5-4.767.782-.246,1.5,4.768a2.369,2.369,0,0,0,3.1,1.662,2.329,2.329,0,0,0,1.544-3.125l-1.5-4.768Z" transform="translate(-2762.565 -57.729)"/><path d="M2928.7,89.118l-.985.4-3.66-1.762-1.96.8,1.147,2.794-.758.311-3.112-7.58,3.4-1.4a2.506,2.506,0,0,1,3.5,1.373,2.373,2.373,0,0,1-1.329,3.266Zm-8.276-4.625,1.378,3.357,2.6-1.067a1.818,1.818,0,1,0-1.335-3.375Z" transform="translate(-2777.827 -53.08)"/><path d="M2957.336,65.9a3.87,3.87,0,0,1,5.556,1.46,3.918,3.918,0,0,1-1.506,5.663l-2.513,1.429-4.05-7.122Zm1.873,7.486,1.8-1.024a3.184,3.184,0,0,0,1.154-4.6,3.143,3.143,0,0,0-4.446-1.189l-1.8,1.024Z" transform="translate(-2799.072 -42.798)"/><path d="M2988.394,51.162a4.151,4.151,0,1,1-5.833-1.14A4.007,4.007,0,0,1,2988.394,51.162Zm-1.437,5.2a3.474,3.474,0,0,0-3.956-5.7,3.19,3.19,0,0,0-.753,4.768A3.239,3.239,0,0,0,2986.957,56.361Z" transform="translate(-2814.59 -33.172)"/><path d="M3011.815,32.78a4.151,4.151,0,1,1-5.913-.6A4,4,0,0,1,3011.815,32.78Zm-.953,5.309a3.241,3.241,0,0,0,.325-4.782,3.227,3.227,0,0,0-4.789-.534,3.19,3.19,0,0,0-.312,4.817A3.239,3.239,0,0,0,3010.863,38.089Z" transform="translate(-2828.754 -22.341)"/><path d="M3033.857,16.65l-.753.753-4.057-.215-1.5,1.5,2.136,2.136-.58.579-5.8-5.8,2.6-2.6a2.507,2.507,0,0,1,3.759-.083,2.374,2.374,0,0,1,.033,3.527Zm-9.422-1.076L3027,18.14l1.987-1.987a1.818,1.818,0,1,0-2.534-2.6Z" transform="translate(-2840.113 -10.941)"/></g><g transform="translate(25.29 0)"><path d="M2631.685-500.42a3.735,3.735,0,0,1,5.378,1.345,3.781,3.781,0,0,1-1.389,5.482l-2.409,1.408-3.989-6.827Zm1.893,7.2,1.726-1.009a3.073,3.073,0,0,0,1.061-4.453,3.032,3.032,0,0,0-4.3-1.1l-1.727,1.009Z" transform="translate(-2629.276 519.282)"/><path d="M2662.15-508.554l-5.105,2.471c-1.146-2.37-2.3-4.749-3.446-7.118l5.013-2.427.325.671-4.3,2.082,1.236,2.552,4.108-1.988.32.661-4.109,1.989,1.241,2.562,4.393-2.127Z" transform="translate(-2643.852 528.02)"/><path d="M2677.195-520.844l2.656,6.653,4.082-1.629.277.693-4.817,1.923-2.932-7.345Z" transform="translate(-2657.551 531.146)"/><path d="M2700.14-520.971l-2.534-7.491.749-.253,2.534,7.491Z" transform="translate(-2670.223 535.862)"/><path d="M2719.579-529.333a4.018,4.018,0,0,1-2.465,1.914,3.827,3.827,0,0,1-5.03-2.811,3.891,3.891,0,0,1,2.887-5.05,3.634,3.634,0,0,1,3.016.408l-.341.6a3.276,3.276,0,0,0-2.485-.307,3.2,3.2,0,0,0-2.317,4.134,3.092,3.092,0,0,0,4.076,2.321,3.41,3.41,0,0,0,2.034-1.562Z" transform="translate(-2678.794 539.888)"/><path d="M2738.234-531.35l-1.623-7.743.775-.162,1.622,7.743Z" transform="translate(-2693.597 542.178)"/><path d="M2758.411-539.733a3.869,3.869,0,0,1-3.381,4.6,3.868,3.868,0,0,1-4.55-3.48,3.87,3.87,0,0,1,3.389-4.629A3.865,3.865,0,0,1,2758.411-539.733Zm-3.487,3.866a3.128,3.128,0,0,0,2.7-3.754,3.114,3.114,0,0,0-3.654-2.878,3.078,3.078,0,0,0-2.71,3.789A3.126,3.126,0,0,0,2754.924-535.866Z" transform="translate(-2701.877 544.594)"/><path d="M2786.032-546.162l.281,4.817a2.922,2.922,0,0,1-2.929,3.341,2.956,2.956,0,0,1-3.344-2.974l-.282-4.817.79-.046.282,4.817a2.288,2.288,0,0,0,2.511,2.287,2.25,2.25,0,0,0,2.182-2.562l-.282-4.817Z" transform="translate(-2719.454 546.318)"/><path d="M2811.212-544.757a2.655,2.655,0,0,0-2.253-1.046c-.972-.017-2.231.243-2.252,1.407-.016.927,1,1.193,2.224,1.43,1.555.3,3.13.678,3.1,2.362-.043,1.785-1.77,2.24-3.205,2.215a3.465,3.465,0,0,1-3.268-1.811l.7-.361a2.848,2.848,0,0,0,2.586,1.414c.971.017,2.366-.218,2.389-1.483.03-1.074-1.163-1.366-2.391-1.6-1.487-.287-2.95-.64-2.922-2.177.007-1.661,1.711-2.162,3.045-2.138a3.3,3.3,0,0,1,2.924,1.431Z" transform="translate(-2734.914 546.55)"/><path d="M2848.831-541.67a2.654,2.654,0,0,0-2.12-1.294c-.963-.127-2.244-.012-2.4,1.142-.121.919.854,1.3,2.047,1.673,1.51.473,3.033,1.027,2.812,2.7-.245,1.768-2.011,2.025-3.434,1.837a3.467,3.467,0,0,1-3.042-2.168l.733-.28a2.846,2.846,0,0,0,2.408,1.7c.964.128,2.375.052,2.541-1.2.152-1.063-1-1.489-2.193-1.863-1.445-.453-2.858-.97-2.657-2.494.195-1.65,1.945-1.954,3.267-1.78a3.3,3.3,0,0,1,2.743,1.753Z" transform="translate(-2757.17 544.872)"/><path d="M2873.141-533l.5-2.573.791-3.713.773.165-1.648,7.735-.464-.1-3.68-7.288-.465,2.292-.838,3.933-.774-.165,1.648-7.734.486.1Z" transform="translate(-2771.936 542.893)"/><path d="M2897.676-525.529l-4.392-1.323-1.307,1.518-.8-.241,5.678-6.549.757.228,1.115,8.6-.8-.241Zm-3.88-1.924,3.786,1.141-.6-4.876Z" transform="translate(-2786.222 537.905)"/><path d="M2924.771-515.832a4.019,4.019,0,0,1-3.119.071,3.826,3.826,0,0,1-2.37-5.251,3.89,3.89,0,0,1,5.324-2.342,3.635,3.635,0,0,1,2.181,2.122l-.629.276a3.274,3.274,0,0,0-1.814-1.724,3.194,3.194,0,0,0-4.321,1.944,3.092,3.092,0,0,0,1.9,4.29,3.411,3.411,0,0,0,2.564-.045Z" transform="translate(-2802.87 532.852)"/><path d="M2949.028-513.32l-5.089,1.716,2.037,5.468-.024.051-.888-.424-1.93-5.166-1.65,3.458-.714-.341,3.407-7.14.714.341-1.533,3.213,4.848-1.631.847.4Z" transform="translate(-2815.94 528.062)"/><path d="M2968.2-500.5a2.655,2.655,0,0,0-1.479-2c-.845-.48-2.075-.853-2.649.159-.458.806.3,1.524,1.27,2.318,1.222,1.006,2.425,2.091,1.594,3.555-.891,1.547-2.624,1.122-3.872.414a3.465,3.465,0,0,1-2-3.151l.783.016a2.848,2.848,0,0,0,1.6,2.477c.845.479,2.182.939,2.806-.161.54-.928-.368-1.755-1.333-2.55-1.169-.962-2.285-1.972-1.526-3.309.8-1.456,2.537-1.081,3.7-.423a3.3,3.3,0,0,1,1.884,2.655Z" transform="translate(-2828.097 520.889)"/></g></g><g transform="translate(2447.247 -502.128)"><path d="M2563.7-383.749a41.852,41.852,0,0,1,9.319,9.628c-5.968,3.774-12.514,9.1-15.191,15.727-2.929,7.256,6.93,8.527,12.066,8.448,6.625-.1,13.65-3.809,14.586-10.9.749-5.7-1.92-10.92-5.572-15.116a50.119,50.119,0,0,1,9.532-3.569c.434,5.443,1.609,11.186,6.677,14.18,7.325,4.326,12.27-.531,15.308-7.2.644,4.27,1.924,8.736,5.11,11.717,3.234,3.025,8.871,4.631,12.967,2.533,4.648-2.38,6.412-7.347,7.943-12.022a82.09,82.09,0,0,0,2.346-8.757,9.257,9.257,0,0,0,2.172.444,7.579,7.579,0,0,0,3.772-.61c0,.016,0,.032-.005.048-.461,4.805.156,9.567,2.773,13.746,2.66,4.251,7.538,6.578,12.439,7.083q.244-.738.533-1.487c-.186-.013-.372-.029-.558-.029a.593.593,0,0,1-.174-.027c-.317-.2-.653-.374-.961-.6a10.8,10.8,0,0,1-1.772-1.706,18.967,18.967,0,0,1-4.335-10.774c-.018-.209,0-.422-.013-.631a10.545,10.545,0,0,0,5.358.866c2.6-.3,4.587-2.311,6.163-4.257,3.043-3.756,5.445-9.375,5.01-14.273a8.882,8.882,0,0,0-2.847-5.946c-1.637-1.345-4.7-1.606-6.738-1.61a11.6,11.6,0,0,0-6.589,1.736,15.328,15.328,0,0,0-4.349,4.936,30.069,30.069,0,0,0-3.689,10.917c-1.417,1.052-3.267,1.855-4.623.883a6.12,6.12,0,0,1-1.14-1.114c.4-2.268.736-4.553.927-6.847a67.5,67.5,0,0,0,.161-8.753c-.122-2.5-.044-5.627-1.523-7.782-1.832-2.664-7.191-3.921-8.962-.527-1.11,2.12-.758,5.237-.619,7.539a37.944,37.944,0,0,0,1.584,8.727c1.01,3.3,2.7,6.655,5.41,8.666a80.026,80.026,0,0,1-3.234,11.226c-1.327,3.565-3.83,8.989-8.218,9.485-1.514.169-2.211-.923-3-2.194a18.66,18.66,0,0,1-2.085-4.784,41.977,41.977,0,0,1-1.293-14.63c.162-2.037,1.5-5.249.035-6.855-.892-.975-2.507-2.05-3.956-1.75-1.154.24-2.707.414-3.421,1.488-.7,1.045-.67,3.426-.818,4.657a42.346,42.346,0,0,0-.274,5.2,42.509,42.509,0,0,1-2.159,5.41c-1.171,2.377-2.486,4.823-4.7,6.386a6.056,6.056,0,0,1-1.924.966,4.629,4.629,0,0,0-1.066.057.36.36,0,0,1-.061-.053,10.824,10.824,0,0,1-1.188-2.15,40.18,40.18,0,0,1-2.05-14.181,49.766,49.766,0,0,1,2.711-15.548c.6-1.763-7.482-3.839-8.313-1.615a45.577,45.577,0,0,0-2.8,18.893,47.309,47.309,0,0,0-10.308,3.534c-.557-.592-1.127-1.162-1.711-1.7-5.706-5.306-12.418-9.328-16.927-15.844-8.231-11.887-7.909-30.421,6.116-37.942,4.313-2.311,8.392-2.716,12.675.109a16.172,16.172,0,0,1,6.842,9.646c1.7,7.726-3.874,15.352-11.352,17.158.4-.1,1.833.753,2.594.579a14.576,14.576,0,0,0,11.43-13.515,16.843,16.843,0,0,0-8.836-14.86c-5.1-2.646-12.009-2.942-17.511-1.732a20.327,20.327,0,0,0-14.9,13.959A27.619,27.619,0,0,0,2548.7-399.8C2552.223-393.046,2557.864-388.432,2563.7-383.749Zm90.063.347a26.442,26.442,0,0,1,4.461-10.2,15.3,15.3,0,0,1,3.36-3.151,3.075,3.075,0,0,1,1.584-.623.774.774,0,0,1,.244.018,4.922,4.922,0,0,1,1.419,1.349c2.624,3.382,1.506,8.44.009,12.049a25.741,25.741,0,0,1-3.347,5.862,12.206,12.206,0,0,1-3.783,3.208,8.684,8.684,0,0,1-1.745.74c-.239.07-.518.1-.753.183a.258.258,0,0,0-.048.022,15.4,15.4,0,0,1-1.646-1.911,8.012,8.012,0,0,1-.74-1.663A45.958,45.958,0,0,1,2653.764-383.4Zm-18.14-7.269c-.9-3.861-1.633-8.875-.536-12.779.1-.34.54-2.024,1.145-1.963.688.065,1.184,3.2,1.24,3.622a49.316,49.316,0,0,1,.353,6.847,68.255,68.255,0,0,1-.762,9.411A45.276,45.276,0,0,1,2635.624-390.671Zm-70.6,39.384c-.031.035-.144-.052-.227-.1C2564.99-351.391,2565.1-351.369,2565.025-351.287Zm11.025-14.3a12.061,12.061,0,0,1-2.651,9.014,13.481,13.481,0,0,1-4.392,3.252,17.9,17.9,0,0,1-2.912,1.109c-.457.131-1.315.165-1.95.305-.54-.514-1.127-1.154-1.2-1.258a9.388,9.388,0,0,1-1.223-2.808,7.176,7.176,0,0,1,.927-5.985,31.8,31.8,0,0,1,8.287-9.115c.884-.7,1.855-1.254,2.781-1.876A18.206,18.206,0,0,1,2576.05-365.585Z" transform="translate(-2505.99 435.701)"/><path d="M2971.583-417.478c-1.646-.775-6.29-1.91-6.991.971-.169.7,1.624,1.275,2.925,1.258a2.541,2.541,0,0,1-.208,1.576c-.862,1.82-3.13,3.36-4.8,4.388-.6.37-1.236.679-1.859,1,1.333-5.423,1.955-11.217-.562-16.057a13.018,13.018,0,0,0-13.48-6.616,12.122,12.122,0,0,0-8.2,6.25,7.666,7.666,0,0,0-.9,3.874,10.1,10.1,0,0,0-3.679-4.326,15.126,15.126,0,0,0-10.477-1.593c-5.663,1.362-7.19,7.125-5.663,12.2a31.984,31.984,0,0,0,4.723,9.1c-6.163-.527-12.3-1.123-18.441-1.72.7-3.173,2.067-10.163,3-13.289.439-1.48-7.662-3.2-8.17-1.606-1.079,3.382-2.529,10.638-3.3,14.077-8.614-.814-35.97-3.252-44.667-3.713-2.746-.143-8.622.527-7.839,4.784.605,3.308,5.845,4.374,8.744,3.4,1.171-.4.1-1.154-.4-1.441a5.552,5.552,0,0,0-1.672-.565c.1-.179.052-.488-.187-.971a3.514,3.514,0,0,1,.339-1.023,4.178,4.178,0,0,1,1.885-2.1c1.78-.74,4.771-.279,6.581-.235,4.8.118,28.309,2.172,33.063,2.6,1.305.118,2.607.27,3.912.4a111.057,111.057,0,0,0-2.49,16.793q-.269,3.039-.434,6.08c-3.307,8.9-7.407,18.195-14.959,24.261a19.255,19.255,0,0,1-3.068,2.108,4.845,4.845,0,0,1-2.194.514c-.309.008-.618-.044-.927-.044a.587.587,0,0,1-.173-.027c-.317-.2-.653-.374-.962-.6a10.8,10.8,0,0,1-1.771-1.706,18.964,18.964,0,0,1-4.336-10.774c-.018-.209,0-.422-.013-.631a10.546,10.546,0,0,0,5.358.866c2.6-.3,4.588-2.311,6.163-4.257,3.042-3.756,5.445-9.375,5.01-14.273a8.884,8.884,0,0,0-2.847-5.946c-1.637-1.345-4.7-1.606-6.738-1.61a11.6,11.6,0,0,0-6.59,1.736,15.332,15.332,0,0,0-4.349,4.936,31.218,31.218,0,0,0-3.939,12.967c-.033.348-.059.7-.081,1.043a52.011,52.011,0,0,1-6.167,10.323,14.3,14.3,0,0,1,2.537.368c.251-.349.511-.69.751-1.048,1.081-1.613,2.069-3.269,2.99-4.958a19.137,19.137,0,0,0,2.743,8.018c2.925,4.675,8.531,7.029,13.9,7.186,2.712.078,4.828-1.2,6.833-2.933a36.353,36.353,0,0,0,6.429-7.313,75.4,75.4,0,0,0,6.187-11.483q-.016,1.921.022,3.837a68.974,68.974,0,0,0,.871,11.339c.889,5.942,3.269,11.452,9.32,13.716,7.03,2.628,14.068,2.768,20.78-.675,12.044-6.185,19.8-19.13,26.076-30.6.313-.574.6-1.167.91-1.746,3.522,2.132,7.1,3.161,10.65,5.353.282-.28.563.5.862.226-3.465-2.059-6.976-4.036-10.375-6.07-.222-.135-.444-.283-.666-.418a116.991,116.991,0,0,0,8.182-19.339c.345-1.106.7-2.272,1.045-3.461a35.951,35.951,0,0,0,9.545-4.709C2972.054-411.7,2975.644-415.567,2971.583-417.478Zm-106.56,36.814a26.435,26.435,0,0,1,4.462-10.2,15.3,15.3,0,0,1,3.36-3.151,3.072,3.072,0,0,1,1.585-.623.777.777,0,0,1,.244.018,4.933,4.933,0,0,1,1.419,1.349c2.625,3.382,1.506,8.44.008,12.049a25.73,25.73,0,0,1-3.347,5.862,12.2,12.2,0,0,1-3.782,3.208,8.692,8.692,0,0,1-1.745.74c-.24.07-.518.1-.753.183a.259.259,0,0,0-.048.022,15.411,15.411,0,0,1-1.645-1.911,8.014,8.014,0,0,1-.74-1.663A45.958,45.958,0,0,1,2865.023-380.665Zm59.608,26.639A32.7,32.7,0,0,1,2913.2-348.3a22.5,22.5,0,0,1-4.139.649c-.147.009-.51-.03-.871-.056-2.486-1.6-4.318-2.912-5.606-5.867a28.617,28.617,0,0,1-1.872-6.865,55.129,55.129,0,0,1-.631-6.242c-.008-.2,0-.388-.008-.583a175.108,175.108,0,0,1,1.057-21.171,119.952,119.952,0,0,1,2.594-17.576c5.219.561,10.438,1.136,15.664,1.641,1.358.131,2.725.244,4.088.361,1.6,2.1,3.321,4.091,4.975,5.924,5.6,6.212,12.171,10.829,19.048,15.1C2941.728-372.228,2934.533-361.35,2924.631-354.025Zm31-48.214a107.57,107.57,0,0,1-7.643,18.329c-8.166-5.254-15.975-11.822-21.559-19.835,6.73.527,13.5.849,20.305.74a46.9,46.9,0,0,0,9.467-1.1C2956.009-403.475,2955.818-402.849,2955.63-402.24Zm1.319-4.413a35.767,35.767,0,0,1-6.7,1.724,74.8,74.8,0,0,1-13.554.34c-3.782-.109-7.548-.349-11.3-.64a48.3,48.3,0,0,1-2.791-4.866c-2.886-5.854-3.064-13.9,4.584-15.809,6.607-1.654,9.915,5.911,10.119,11.674-.043.8-.074,1.6-.109,2.394a2.093,2.093,0,0,0,.918.178,14.2,14.2,0,0,0,.4-5.589,14.767,14.767,0,0,1,1.284-3.508c1.5-2.838,2.82-5.7,5.494-7.648s5.662-2.76,8.4-.579a13.1,13.1,0,0,1,4.47,7.325C2959.292-416.786,2958.312-411.558,2956.949-406.653Z" transform="translate(-2684.352 432.963)"/><path d="M2911.343-206.369a13.079,13.079,0,0,0,4.78.871,5.116,5.116,0,0,0,2.9-.819,4.319,4.319,0,0,0,1.075-1.194,6.21,6.21,0,0,0,1.493-2.988,3.252,3.252,0,0,0-1.158-3.034,7.685,7.685,0,0,0-3.63-1.384,7.517,7.517,0,0,0-3.264.127,2.889,2.889,0,0,0-1.667,1.3,4.086,4.086,0,0,0-2.664.835,3.815,3.815,0,0,0-.94,1.462,3.3,3.3,0,0,0-.161,1.576,3.2,3.2,0,0,0,.988,1.92A6.063,6.063,0,0,0,2911.343-206.369Z" transform="translate(-2723.4 303.466)"/><path d="M2726.151-225.379c-3.017,3.073-5.924,6.264-8.749,9.528,0-.109,0-.214,0-.323a133.16,133.16,0,0,0-1.353-18.2c-.24-1.415-7.87-2.055-7.879-1.532-.018,1.349.039,2.7.074,4.044a9.081,9.081,0,0,0-1.4-1.976c-1.767-1.863-4.492-2.381-6.974-2.507a9.554,9.554,0,0,0-8.091,3.23c-2.146,2.511-2.846,6.006-3.439,9.162a63.855,63.855,0,0,0-1.379,11.495c0,.677.007,1.387.042,2.11a90.991,90.991,0,0,1-5.67,13.289,10.9,10.9,0,0,1-2.146,2.882,10.5,10.5,0,0,1-1.158.9.229.229,0,0,0-.1.2c-.021-.038-.014-.038-.039-.091-1.01-1.845-1.119-4.714-1.245-6.76a58.685,58.685,0,0,1,.975-13.875c1.448-8.236,5.836-20.615-2.307-26.643-1.977-1.463-4.862-2.268-7.2-1.184-3.508,1.623-5.519,6.585-7.1,9.811a66.984,66.984,0,0,0-3.909,10.3c.083-1.132.166-2.259.3-3.382.374-3.2.961-6.373,1.631-9.519a6.061,6.061,0,0,0,.292-1.345,13.429,13.429,0,0,0-1.54-1.015,6.979,6.979,0,0,0-1.154-.256,8.8,8.8,0,0,0-2.781-.5c-.766.143-1.519.091-1.942.674a3.746,3.746,0,0,0-.3,1q-.281,1-.535,2c-.392,1.563-.675,3.151-.923,4.74a76.688,76.688,0,0,0-.844,8.58,77.317,77.317,0,0,0,.542,12.977c-.315.781-.653,1.551-1.032,2.3-1.444,2.864-3.508,5.933-6.755,6.894a5.983,5.983,0,0,1-1.1.226,1.4,1.4,0,0,1-.239.014c-.131-.206-.319-.506-.344-.553a4.755,4.755,0,0,1-.657-2.015,66.04,66.04,0,0,1-.257-8.775,199.075,199.075,0,0,1,2.177-24.549c.157-1.067-8.148-2.551-8.314-1.616a160.478,160.478,0,0,0-2.158,19.705c-1.406,4.016-2.8,8.041-5.173,11.643a13.3,13.3,0,0,1-3.691,3.84,7.305,7.305,0,0,1-2.5,1.11,3.007,3.007,0,0,1-.4.038c-2.969-3.591-2.951-8.069-4.84-12.179a9.387,9.387,0,0,0-6.124-5.088,45.032,45.032,0,0,0,11.844-8.253c3.138-3.164,7.892-9.549,4.074-13.81a9.431,9.431,0,0,0-5.881-2.729,6.731,6.731,0,0,0-5.846,1.78,31.715,31.715,0,0,0-8,10.221c.192-1.676.4-3.343.649-5.01a45.131,45.131,0,0,0,10.8-15.91c1.484-3.751,5.532-12.409.9-15.556-2.132-1.45-6.476-1.894-8.692-.488-3.134,1.989-4.178,6.939-5.193,10.19a139.732,139.732,0,0,0-5.667,28.018,141.993,141.993,0,0,0-.64,16.554c.019.985.052,1.97.093,2.955-2.421,4.514-5.515,9.387-9.892,12.131a10.98,10.98,0,0,1-4.514,1.594c-.331.038-.922-.039-1.145-.014-.087-.052-.182-.109-.222-.135a13.519,13.519,0,0,1-3.021-2.955,20.813,20.813,0,0,1-3.435-9.733,65.657,65.657,0,0,1,1.48-22.011c.657-2.916,1.706-6.2,3.712-8.488a4.256,4.256,0,0,1,4.767-1.359,6.451,6.451,0,0,1,3.395,6.008c-.047,3.864-2.572,7.2-5.114,9.88-.3.322,1.515.9,1.9.549,4.205-3.844,8.653-11.548,2.786-16.066-5.175-3.987-12.545-1.375-16.3,3.208-2.547,3.108-3.238,7.844-3.861,11.713a56.529,56.529,0,0,0-.752,13.22c0,.035.006.071.009.106q-.645,2.257-1.307,4.508c-.766,2.6-1.31,5.4-2.794,7.712a7.231,7.231,0,0,1-1.158,1.468,10.055,10.055,0,0,1-1.676.931,7.335,7.335,0,0,1-1.053-1.688c-1.158-2.515-1.253-5.633-1.489-8.344a88.7,88.7,0,0,1-.344-9.319,103.75,103.75,0,0,1,2.595-19.191c.13-.627-7.265-2.346-7.544-1.466-.479,1.492-.853,3.025-1.2,4.565a8.614,8.614,0,0,0-.675-1.549c-1.323-2.271-3.308-2.7-5.706-3.146-2.873-.54-5.95-.662-8.566.887-3.038,1.793-4.727,5.115-5.8,8.344a40.154,40.154,0,0,0-1.95,11.608,48.11,48.11,0,0,0,.094,5.088,91.95,91.95,0,0,1-5.742,13.489,10.888,10.888,0,0,1-2.146,2.882,10.452,10.452,0,0,1-1.158.9.231.231,0,0,0-.1.2c-.021-.038-.013-.038-.039-.091-1.01-1.845-1.119-4.714-1.245-6.76a58.659,58.659,0,0,1,.975-13.875c1.449-8.236,5.837-20.615-2.307-26.643-1.976-1.463-4.862-2.268-7.2-1.184-3.508,1.623-5.519,6.585-7.1,9.811a67.059,67.059,0,0,0-3.909,10.3c.083-1.132.166-2.259.3-3.382.374-3.2.962-6.373,1.632-9.519a6.127,6.127,0,0,0,.292-1.345,13.393,13.393,0,0,0-1.541-1.015,6.957,6.957,0,0,0-1.153-.256,8.8,8.8,0,0,0-2.782-.5c-.766.143-1.519.091-1.941.674a3.747,3.747,0,0,0-.3,1q-.28,1-.535,2c-.392,1.563-.675,3.151-.923,4.74a76.745,76.745,0,0,0-.844,8.58c-.04.937-.056,1.874-.062,2.812a47.29,47.29,0,0,0-10.22,3.515c-.558-.593-1.128-1.163-1.711-1.7-5.706-5.306-12.418-9.328-16.927-15.844-8.231-11.887-7.909-30.421,6.116-37.942,4.313-2.311,8.392-2.716,12.675.109a16.167,16.167,0,0,1,6.842,9.646c1.7,7.726-3.873,15.352-11.351,17.158.4-.1,1.833.753,2.594.579a14.576,14.576,0,0,0,11.43-13.514,16.845,16.845,0,0,0-8.836-14.861c-5.1-2.647-12.009-2.942-17.511-1.732a20.328,20.328,0,0,0-14.9,13.959,27.616,27.616,0,0,0,2.207,21.258c3.526,6.756,9.167,11.369,15,16.053a41.855,41.855,0,0,1,9.318,9.628c-5.967,3.775-12.513,9.1-15.191,15.727-2.929,7.255,6.929,8.527,12.066,8.448,6.625-.1,13.65-3.809,14.586-10.9.749-5.7-1.92-10.92-5.572-15.116a50.142,50.142,0,0,1,9.381-3.529,76.672,76.672,0,0,0,1.315,13.76,4.361,4.361,0,0,0,.2,1.014,4.059,4.059,0,0,0,2.115,1.385c.182.065.374.091.561.143a12.906,12.906,0,0,0,2.89.557,2.6,2.6,0,0,0,2.042-.927c.162-.345-.309-1.637-.379-2.037q-.379-2.213-.631-4.445c-.131-1.171-.217-2.35-.292-3.529.231-1.537.414-3.086.749-4.605a70.463,70.463,0,0,1,4.3-13.141,68.868,68.868,0,0,1,3.095-6.189c1.188-2.1,2.468-4.584,4.588-5.885,5.2-3.191,2.337,8.344,2.032,10.311-1.449,9.437-4.971,19.679-3.325,29.281.674,3.943,1.82,7.522,5.846,9.1,3.082,1.211,5.881,1.067,7.726-1.849a40.606,40.606,0,0,0,3.065-7.038c.8-2.068,1.645-4.123,2.439-6.2a15.825,15.825,0,0,0,.759,2.462c1.45,3.556,4.623,4.374,8.04,5.027a7.521,7.521,0,0,0,3.252.349,4.9,4.9,0,0,0,2.511-2.551c1.881-3.377,2.7-7.53,3.935-11.177q1-2.957,1.976-5.929c-.061,1.558-.1,3.121-.083,4.661a62.016,62.016,0,0,0,.98,10.99c.666,3.422,2.425,5.907,5.767,7.091,1.989.7,5.127,1.805,7.086.5,2.168-1.44,2.8-4.253,3.457-6.59q.535-1.9,1.081-3.788a19.827,19.827,0,0,0,2.75,6.835,15.191,15.191,0,0,0,13.058,6.42c2.943-.147,5.336-1.945,7.491-3.8a30.061,30.061,0,0,0,6.046-7.7c.125-.213.244-.429.366-.644.031.462.061.925.1,1.387.1,1.336.218,2.672.366,4a4.656,4.656,0,0,0,2.011,3.922c.683.575,2.838,1.231,3.669.714,1.5-.932,1.35-1.045,1.28-2.794-.056-1.332-.274-2.672-.384-4q-.326-4.008-.421-8.026c-.044-1.841-.013-3.687.013-5.528a3.822,3.822,0,0,0,2.042-.008c.118-.053.231-.119.348-.17a1.835,1.835,0,0,1,.127.148,10.051,10.051,0,0,1,1.41,3.073c.635,2.168.932,4.427,1.58,6.6a8.752,8.752,0,0,0,3.756,5.4,17.361,17.361,0,0,0,7.582,2.1c3.025.234,5.232-1.733,6.895-4.066a33.9,33.9,0,0,0,3.515-6.468c-.027,2.7.135,5.222,1.8,7.579,1.736,2.45,4.727,3.121,7.543,3.573a8.323,8.323,0,0,0,8.466-3.334,19.122,19.122,0,0,0,1.728-2.6c.024.129.043.26.068.389a4.386,4.386,0,0,0,.2,1.014,4.059,4.059,0,0,0,2.116,1.385c.182.065.374.091.561.143a12.9,12.9,0,0,0,2.89.557,2.606,2.606,0,0,0,2.042-.927c.161-.345-.31-1.637-.379-2.037q-.379-2.213-.631-4.445c-.131-1.171-.218-2.35-.292-3.529.23-1.537.413-3.086.748-4.605a70.552,70.552,0,0,1,4.3-13.141,69,69,0,0,1,3.1-6.189c1.188-2.1,2.468-4.584,4.588-5.885,5.2-3.191,2.337,8.344,2.031,10.311-1.448,9.437-4.971,19.679-3.325,29.281.674,3.943,1.819,7.522,5.846,9.1,3.082,1.211,5.881,1.067,7.726-1.849a40.717,40.717,0,0,0,3.064-7.038c.758-1.948,1.549-3.883,2.3-5.834a10.776,10.776,0,0,0,1.675,4.018c1.964,2.725,5.969,3.369,9.093,3.6,2.455.184,3.6-2.224,4.6-4.174a67.656,67.656,0,0,0,5.894-17.911c.256,4.318.492,8.636.409,12.962-.018.94-.1,1.876-.135,2.816-1.049,1.406-2.106,2.8-3.112,4.239q-4.394,6.28-8.23,12.932c-2.377,4.118-6.164,9.25-6.46,14.133-.5,8.353,11.626,9.14,15.961,3.922,3.142-3.783,5.08-9.115,6.6-13.732a74.232,74.232,0,0,0,3.082-15.144,118.228,118.228,0,0,0,.57-14.373q4.942-6.046,10.447-11.634C2727.774-224.97,2726.473-225.705,2726.151-225.379ZM2610-255.295a50.914,50.914,0,0,1,2.3-6.843,6.46,6.46,0,0,1,1.689-2.411c.945-.71.479-.518,1.084.2,2.533,3,1.419,7.178.461,10.529a43.38,43.38,0,0,1-9.885,17.163A142.876,142.876,0,0,1,2610-255.295ZM2467-188.58c-.031.035-.143-.052-.226-.1C2466.962-188.684,2467.075-188.662,2467-188.58Zm8.375-5.284a13.487,13.487,0,0,1-4.392,3.252,17.911,17.911,0,0,1-2.912,1.109c-.457.131-1.314.165-1.95.3-.54-.513-1.127-1.154-1.2-1.258a9.393,9.393,0,0,1-1.222-2.808,7.175,7.175,0,0,1,.927-5.985,31.794,31.794,0,0,1,8.287-9.115c.884-.7,1.855-1.254,2.781-1.876a18.2,18.2,0,0,1,2.333,7.361A12.061,12.061,0,0,1,2475.372-193.864Zm67.793-14.151c-.949,2.363-1.785,5.35-3.939,6.942a5.6,5.6,0,0,1-1.2.618.834.834,0,0,1-.113-.113,7.888,7.888,0,0,1-.884-1.805,28.805,28.805,0,0,1-1.41-8.715,45.81,45.81,0,0,1,.421-9.545c.819-5.38,2.042-11.473,6.991-14.577a5.949,5.949,0,0,1,1.571-.7c.087-.026.257-.039.4-.065a1.415,1.415,0,0,0,.139.065,9.376,9.376,0,0,1,2.638,2.485,12.154,12.154,0,0,1,1.358,7.657,1.016,1.016,0,0,0,.2.056C2547.382-219.772,2545.5-213.818,2543.164-208.016Zm60.687-11.848c.009-.149.018-.3.026-.448,2.063-7.827,5.876-15.178,12.671-19.622.24-.157,1.78-.666,1.75-.988a2.133,2.133,0,0,1,.709,1.014,7.875,7.875,0,0,1,.03,3.4c-.462,2.886-2.625,6.012-4.461,8.214C2611.582-224.683,2607.751-222.245,2603.851-219.864Zm99.287,9.014a39.414,39.414,0,0,1-3.417,7.234,7.587,7.587,0,0,1-2.79,2.529c-2.987-4.092-2.447-10.629-1.859-15.291.366-2.9.871-5.8,1.423-8.671a17.568,17.568,0,0,1,2.608-6.877,9.062,9.062,0,0,1,2.759-2.543,6.207,6.207,0,0,1,1.018-.579c1.7-.566.162-.147.728.148a4.908,4.908,0,0,1,.94.7c2.164,1.972,2.5,4.649,2.843,7.335A64.567,64.567,0,0,1,2703.138-210.85Zm1.728,29.472c-1.366,4.048-3.029,8.767-6.433,11.561-.031.026-1.128.692-1.954,1.1-.174-.109-.344-.214-.6-.361a5.5,5.5,0,0,1-.893-1.227,7.7,7.7,0,0,1-.436-6.385c1.306-4.288,3.965-8.449,6.163-12.327q3.409-6.007,7.279-11.735c.27-.4.561-.779.831-1.175A83.6,83.6,0,0,1,2704.866-181.378Z" transform="translate(-2447.247 338.198)"/></g></g></svg>